<?xml version="1.0" encoding="UTF-8"?>
<!DOCTYPE svg PUBLIC "-//W3C//DTD SVG 1.1//EN" "http://www.w3.org/Graphics/SVG/1.1/DTD/svg11.dtd">
<svg xmlns="http://www.w3.org/2000/svg" version="1.1" width="72px" height="72px" style="shape-rendering:geometricPrecision; text-rendering:geometricPrecision; image-rendering:optimizeQuality; fill-rule:evenodd; clip-rule:evenodd" xmlns:xlink="http://www.w3.org/1999/xlink">
<g><path style="opacity:0.997" fill="#d74637" d="M 29.5,-0.5 C 33.8333,-0.5 38.1667,-0.5 42.5,-0.5C 43.287,1.10422 44.6203,1.77089 46.5,1.5C 49.8908,2.5293 52.5574,4.5293 54.5,7.5C 56.5522,10.6669 58.2188,14.0002 59.5,17.5C 59.9134,23.037 59.0801,28.3703 57,33.5C 50.724,46.3876 44.224,59.0543 37.5,71.5C 36.1667,71.5 34.8333,71.5 33.5,71.5C 28.447,61.0629 22.6137,51.0629 16,41.5C 13.1631,35.4817 11.6631,29.1484 11.5,22.5C 12.3705,19.997 13.0372,17.3303 13.5,14.5C 13.5,14.1667 13.5,13.8333 13.5,13.5C 14.1667,13.5 14.5,13.1667 14.5,12.5C 14.5,11.8333 14.1667,11.5 13.5,11.5C 13.3932,9.62143 13.8932,9.2881 15,10.5C 15.7172,9.9558 16.2172,9.28913 16.5,8.5C 18.5398,6.82296 20.5398,5.15629 22.5,3.5C 23.5137,2.32627 24.847,1.6596 26.5,1.5C 27.4916,1.67158 28.1583,1.33825 28.5,0.5C 29.1667,0.5 29.5,0.166667 29.5,-0.5 Z"/></g>
<g><path style="opacity:0.584" fill="#cca7a2" d="M 26.5,-0.5 C 27.1667,-0.5 27.8333,-0.5 28.5,-0.5C 28.5,-0.166667 28.5,0.166667 28.5,0.5C 28.1583,1.33825 27.4916,1.67158 26.5,1.5C 26.5,0.833333 26.5,0.166667 26.5,-0.5 Z"/></g>
<g><path style="opacity:0.447" fill="#220f0a" d="M 42.5,-0.5 C 43.5,-0.5 44.5,-0.5 45.5,-0.5C 45.8333,0.166667 46.1667,0.833333 46.5,1.5C 44.6203,1.77089 43.287,1.10422 42.5,-0.5 Z"/></g>
<g><path style="opacity:0.035" fill="#ece3e2" d="M 22.5,3.5 C 20.5398,5.15629 18.5398,6.82296 16.5,8.5C 16.9496,5.75285 18.9496,4.08618 22.5,3.5 Z"/></g>
<g><path style="opacity:1" fill="#a33327" d="M 30.5,9.5 C 44.1362,7.97053 50.3029,13.9705 49,27.5C 45.4263,36.3694 38.9263,39.5361 29.5,37C 22.0385,31.8972 19.8718,25.0639 23,16.5C 24.7424,13.2543 27.2424,10.921 30.5,9.5 Z"/></g>
<g><path style="opacity:0.722" fill="#b37b74" d="M 54.5,7.5 C 58.0545,9.7983 59.7212,13.1316 59.5,17.5C 58.2188,14.0002 56.5522,10.6669 54.5,7.5 Z"/></g>
<g><path style="opacity:0.141" fill="#c8bdbb" d="M 13.5,11.5 C 14.1667,11.5 14.5,11.8333 14.5,12.5C 14.5,13.1667 14.1667,13.5 13.5,13.5C 13.1667,13.5 12.8333,13.5 12.5,13.5C 12.3284,12.5084 12.6618,11.8417 13.5,11.5 Z"/></g>
<g><path style="opacity:1" fill="#080202" d="M 32.5,15.5 C 42.7006,16.4083 45.3673,21.2417 40.5,30C 32.0842,32.5946 27.9175,29.428 28,20.5C 29.025,18.313 30.525,16.6464 32.5,15.5 Z"/></g>
<g><path style="opacity:0.89" fill="#d7887e" d="M 12.5,13.5 C 12.5,14.1667 12.8333,14.5 13.5,14.5C 13.0372,17.3303 12.3705,19.997 11.5,22.5C 11.19,19.2869 11.5233,16.2869 12.5,13.5 Z"/></g>
</svg>
